<mxfile host="app.diagrams.net" modified="2022-10-13T19:36:18.640Z" agent="5.0 (Windows NT 10.0; Win64; x64) AppleWebKit/537.36 (KHTML, like Gecko) Chrome/106.0.0.0 Safari/537.36" etag="ChSUVBPFqKM4MJshCRSj" version="20.4.0" type="github">
  <diagram id="C5RBs43oDa-KdzZeNtuy" name="Page-1">
    <mxGraphModel dx="1760" dy="959" grid="1" gridSize="10" guides="1" tooltips="1" connect="1" arrows="1" fold="1" page="1" pageScale="1" pageWidth="1169" pageHeight="827" math="0" shadow="1">
      <root>
        <mxCell id="WIyWlLk6GJQsqaUBKTNV-0" />
        <mxCell id="WIyWlLk6GJQsqaUBKTNV-1" parent="WIyWlLk6GJQsqaUBKTNV-0" />
        <mxCell id="fwTmCoZGssg4nUn9q0i2-12" style="edgeStyle=orthogonalEdgeStyle;rounded=0;orthogonalLoop=1;jettySize=auto;html=1;exitX=1;exitY=1;exitDx=0;exitDy=0;entryX=0.455;entryY=0.2;entryDx=0;entryDy=0;entryPerimeter=0;" edge="1" parent="WIyWlLk6GJQsqaUBKTNV-1" source="fwTmCoZGssg4nUn9q0i2-1" target="fwTmCoZGssg4nUn9q0i2-3">
          <mxGeometry relative="1" as="geometry" />
        </mxCell>
        <mxCell id="fwTmCoZGssg4nUn9q0i2-16" style="edgeStyle=orthogonalEdgeStyle;rounded=0;orthogonalLoop=1;jettySize=auto;html=1;exitX=0;exitY=1;exitDx=0;exitDy=0;entryX=0.532;entryY=0.333;entryDx=0;entryDy=0;entryPerimeter=0;" edge="1" parent="WIyWlLk6GJQsqaUBKTNV-1" source="fwTmCoZGssg4nUn9q0i2-1" target="fwTmCoZGssg4nUn9q0i2-2">
          <mxGeometry relative="1" as="geometry" />
        </mxCell>
        <mxCell id="fwTmCoZGssg4nUn9q0i2-1" value="HOMEPAGE" style="rhombus;whiteSpace=wrap;html=1;" vertex="1" parent="WIyWlLk6GJQsqaUBKTNV-1">
          <mxGeometry x="527" y="74" width="94" height="90" as="geometry" />
        </mxCell>
        <mxCell id="fwTmCoZGssg4nUn9q0i2-20" style="edgeStyle=orthogonalEdgeStyle;rounded=0;orthogonalLoop=1;jettySize=auto;html=1;exitX=1;exitY=1;exitDx=0;exitDy=0;entryX=0.213;entryY=0.429;entryDx=0;entryDy=0;entryPerimeter=0;" edge="1" parent="WIyWlLk6GJQsqaUBKTNV-1" source="fwTmCoZGssg4nUn9q0i2-2" target="fwTmCoZGssg4nUn9q0i2-4">
          <mxGeometry relative="1" as="geometry" />
        </mxCell>
        <mxCell id="fwTmCoZGssg4nUn9q0i2-2" value="SIGN IN AS ADMIN" style="rhombus;whiteSpace=wrap;html=1;" vertex="1" parent="WIyWlLk6GJQsqaUBKTNV-1">
          <mxGeometry x="400" y="85" width="94" height="90" as="geometry" />
        </mxCell>
        <mxCell id="fwTmCoZGssg4nUn9q0i2-21" style="edgeStyle=orthogonalEdgeStyle;rounded=0;orthogonalLoop=1;jettySize=auto;html=1;exitX=0.5;exitY=1;exitDx=0;exitDy=0;entryX=0.925;entryY=0.571;entryDx=0;entryDy=0;entryPerimeter=0;" edge="1" parent="WIyWlLk6GJQsqaUBKTNV-1" source="fwTmCoZGssg4nUn9q0i2-3" target="fwTmCoZGssg4nUn9q0i2-4">
          <mxGeometry relative="1" as="geometry" />
        </mxCell>
        <mxCell id="fwTmCoZGssg4nUn9q0i2-3" value="SIGN UP AS ADMIN" style="rhombus;whiteSpace=wrap;html=1;" vertex="1" parent="WIyWlLk6GJQsqaUBKTNV-1">
          <mxGeometry x="650" y="80" width="110" height="100" as="geometry" />
        </mxCell>
        <mxCell id="fwTmCoZGssg4nUn9q0i2-25" style="edgeStyle=orthogonalEdgeStyle;rounded=0;orthogonalLoop=1;jettySize=auto;html=1;exitX=0;exitY=0.5;exitDx=0;exitDy=0;" edge="1" parent="WIyWlLk6GJQsqaUBKTNV-1" source="fwTmCoZGssg4nUn9q0i2-4" target="fwTmCoZGssg4nUn9q0i2-22">
          <mxGeometry relative="1" as="geometry" />
        </mxCell>
        <mxCell id="fwTmCoZGssg4nUn9q0i2-33" style="edgeStyle=orthogonalEdgeStyle;rounded=0;orthogonalLoop=1;jettySize=auto;html=1;" edge="1" parent="WIyWlLk6GJQsqaUBKTNV-1" source="fwTmCoZGssg4nUn9q0i2-4" target="fwTmCoZGssg4nUn9q0i2-24">
          <mxGeometry relative="1" as="geometry" />
        </mxCell>
        <mxCell id="fwTmCoZGssg4nUn9q0i2-37" style="edgeStyle=orthogonalEdgeStyle;rounded=0;orthogonalLoop=1;jettySize=auto;html=1;exitX=0.5;exitY=1;exitDx=0;exitDy=0;" edge="1" parent="WIyWlLk6GJQsqaUBKTNV-1" source="fwTmCoZGssg4nUn9q0i2-4" target="fwTmCoZGssg4nUn9q0i2-36">
          <mxGeometry relative="1" as="geometry" />
        </mxCell>
        <mxCell id="fwTmCoZGssg4nUn9q0i2-4" value="WELCOME ADMIN PAGE" style="rhombus;whiteSpace=wrap;html=1;" vertex="1" parent="WIyWlLk6GJQsqaUBKTNV-1">
          <mxGeometry x="494" y="180" width="160" height="140" as="geometry" />
        </mxCell>
        <mxCell id="fwTmCoZGssg4nUn9q0i2-35" style="edgeStyle=orthogonalEdgeStyle;rounded=0;orthogonalLoop=1;jettySize=auto;html=1;exitX=0;exitY=1;exitDx=0;exitDy=0;entryX=1;entryY=0;entryDx=0;entryDy=0;" edge="1" parent="WIyWlLk6GJQsqaUBKTNV-1" source="fwTmCoZGssg4nUn9q0i2-22" target="fwTmCoZGssg4nUn9q0i2-34">
          <mxGeometry relative="1" as="geometry" />
        </mxCell>
        <mxCell id="fwTmCoZGssg4nUn9q0i2-22" value="CREATE POST" style="rhombus;whiteSpace=wrap;html=1;" vertex="1" parent="WIyWlLk6GJQsqaUBKTNV-1">
          <mxGeometry x="310" y="164" width="130" height="120" as="geometry" />
        </mxCell>
        <mxCell id="fwTmCoZGssg4nUn9q0i2-48" value="" style="edgeStyle=orthogonalEdgeStyle;rounded=0;orthogonalLoop=1;jettySize=auto;html=1;" edge="1" parent="WIyWlLk6GJQsqaUBKTNV-1" source="fwTmCoZGssg4nUn9q0i2-24" target="fwTmCoZGssg4nUn9q0i2-41">
          <mxGeometry relative="1" as="geometry" />
        </mxCell>
        <mxCell id="fwTmCoZGssg4nUn9q0i2-24" value="DESTROY POST" style="rhombus;whiteSpace=wrap;html=1;" vertex="1" parent="WIyWlLk6GJQsqaUBKTNV-1">
          <mxGeometry x="730" y="172.5" width="170" height="155" as="geometry" />
        </mxCell>
        <mxCell id="fwTmCoZGssg4nUn9q0i2-47" style="edgeStyle=orthogonalEdgeStyle;rounded=0;orthogonalLoop=1;jettySize=auto;html=1;exitX=0.5;exitY=1;exitDx=0;exitDy=0;" edge="1" parent="WIyWlLk6GJQsqaUBKTNV-1" source="fwTmCoZGssg4nUn9q0i2-34" target="fwTmCoZGssg4nUn9q0i2-43">
          <mxGeometry relative="1" as="geometry" />
        </mxCell>
        <mxCell id="fwTmCoZGssg4nUn9q0i2-34" value="SAVES AND CREATES POST" style="rhombus;whiteSpace=wrap;html=1;" vertex="1" parent="WIyWlLk6GJQsqaUBKTNV-1">
          <mxGeometry x="334" y="330" width="160" height="150" as="geometry" />
        </mxCell>
        <mxCell id="fwTmCoZGssg4nUn9q0i2-38" style="edgeStyle=orthogonalEdgeStyle;rounded=0;orthogonalLoop=1;jettySize=auto;html=1;exitX=0;exitY=1;exitDx=0;exitDy=0;entryX=0.883;entryY=0.369;entryDx=0;entryDy=0;entryPerimeter=0;" edge="1" parent="WIyWlLk6GJQsqaUBKTNV-1" source="fwTmCoZGssg4nUn9q0i2-36" target="fwTmCoZGssg4nUn9q0i2-34">
          <mxGeometry relative="1" as="geometry" />
        </mxCell>
        <mxCell id="fwTmCoZGssg4nUn9q0i2-36" value="EDIT POST" style="rhombus;whiteSpace=wrap;html=1;" vertex="1" parent="WIyWlLk6GJQsqaUBKTNV-1">
          <mxGeometry x="534" y="374" width="80" height="80" as="geometry" />
        </mxCell>
        <mxCell id="fwTmCoZGssg4nUn9q0i2-52" style="edgeStyle=orthogonalEdgeStyle;rounded=0;orthogonalLoop=1;jettySize=auto;html=1;entryX=0.804;entryY=0.3;entryDx=0;entryDy=0;entryPerimeter=0;" edge="1" parent="WIyWlLk6GJQsqaUBKTNV-1" source="fwTmCoZGssg4nUn9q0i2-39" target="fwTmCoZGssg4nUn9q0i2-43">
          <mxGeometry relative="1" as="geometry" />
        </mxCell>
        <mxCell id="fwTmCoZGssg4nUn9q0i2-39" value="NO/CANCEL" style="rhombus;whiteSpace=wrap;html=1;" vertex="1" parent="WIyWlLk6GJQsqaUBKTNV-1">
          <mxGeometry x="604" y="455" width="106" height="100" as="geometry" />
        </mxCell>
        <mxCell id="fwTmCoZGssg4nUn9q0i2-51" value="" style="edgeStyle=orthogonalEdgeStyle;rounded=0;orthogonalLoop=1;jettySize=auto;html=1;" edge="1" parent="WIyWlLk6GJQsqaUBKTNV-1" source="fwTmCoZGssg4nUn9q0i2-40" target="fwTmCoZGssg4nUn9q0i2-42">
          <mxGeometry relative="1" as="geometry" />
        </mxCell>
        <mxCell id="fwTmCoZGssg4nUn9q0i2-40" value="YES" style="rhombus;whiteSpace=wrap;html=1;" vertex="1" parent="WIyWlLk6GJQsqaUBKTNV-1">
          <mxGeometry x="910" y="375" width="80" height="80" as="geometry" />
        </mxCell>
        <mxCell id="fwTmCoZGssg4nUn9q0i2-49" value="" style="edgeStyle=orthogonalEdgeStyle;rounded=0;orthogonalLoop=1;jettySize=auto;html=1;" edge="1" parent="WIyWlLk6GJQsqaUBKTNV-1" source="fwTmCoZGssg4nUn9q0i2-41" target="fwTmCoZGssg4nUn9q0i2-39">
          <mxGeometry relative="1" as="geometry" />
        </mxCell>
        <mxCell id="fwTmCoZGssg4nUn9q0i2-50" value="" style="edgeStyle=orthogonalEdgeStyle;rounded=0;orthogonalLoop=1;jettySize=auto;html=1;" edge="1" parent="WIyWlLk6GJQsqaUBKTNV-1" source="fwTmCoZGssg4nUn9q0i2-41" target="fwTmCoZGssg4nUn9q0i2-40">
          <mxGeometry relative="1" as="geometry" />
        </mxCell>
        <mxCell id="fwTmCoZGssg4nUn9q0i2-41" value="ARE YOU SURE?" style="rhombus;whiteSpace=wrap;html=1;" vertex="1" parent="WIyWlLk6GJQsqaUBKTNV-1">
          <mxGeometry x="755" y="350" width="120" height="130" as="geometry" />
        </mxCell>
        <mxCell id="fwTmCoZGssg4nUn9q0i2-42" value="DELETES AND&lt;br&gt;&amp;nbsp;GOES TO &lt;br&gt;POSTS LISTS" style="rhombus;whiteSpace=wrap;html=1;" vertex="1" parent="WIyWlLk6GJQsqaUBKTNV-1">
          <mxGeometry x="877.5" y="494" width="145" height="160" as="geometry" />
        </mxCell>
        <mxCell id="fwTmCoZGssg4nUn9q0i2-43" value="GOES TO POSTS &lt;br&gt;LISTS" style="rhombus;whiteSpace=wrap;html=1;" vertex="1" parent="WIyWlLk6GJQsqaUBKTNV-1">
          <mxGeometry x="415" y="524" width="145" height="106" as="geometry" />
        </mxCell>
        <mxCell id="fwTmCoZGssg4nUn9q0i2-57" value="" style="rounded=0;whiteSpace=wrap;html=1;" vertex="1" parent="WIyWlLk6GJQsqaUBKTNV-1">
          <mxGeometry x="510" y="4" width="120" height="60" as="geometry" />
        </mxCell>
        <mxCell id="fwTmCoZGssg4nUn9q0i2-58" value="ADMIN USER JOURNEY" style="text;html=1;strokeColor=none;fillColor=none;align=center;verticalAlign=middle;whiteSpace=wrap;rounded=0;" vertex="1" parent="WIyWlLk6GJQsqaUBKTNV-1">
          <mxGeometry x="544" y="19" width="60" height="30" as="geometry" />
        </mxCell>
      </root>
    </mxGraphModel>
  </diagram>
</mxfile>
